<svg width="1080" height="174" viewBox="0 0 1080 174" fill="none" xmlns="http://www.w3.org/2000/svg">
<rect width="1080" height="174" fill="#F5F5F5"/>
<path d="M0 2C0 0.895435 0.89543 0 2 0H1078C1079.1 0 1080 0.895431 1080 2V172C1080 173.105 1079.1 174 1078 174H2.00001C0.895436 174 0 173.105 0 172V2Z" fill="white"/>
<path d="M2 1H1078V-1H2V1ZM1079 2V172H1081V2H1079ZM1078 173H2.00001V175H1078V173ZM1 172V2H-1V172H1ZM2.00001 173C1.44772 173 1 172.552 1 172H-1C-1 173.657 0.343154 175 2.00001 175V173ZM1079 172C1079 172.552 1078.55 173 1078 173V175C1079.66 175 1081 173.657 1081 172H1079ZM1078 1C1078.55 1 1079 1.44772 1079 2H1081C1081 0.343142 1079.66 -1 1078 -1V1ZM2 -1C0.343143 -1 -1 0.343153 -1 2H1C1 1.44772 1.44772 1 2 1V-1Z" fill="black" fill-opacity="0.1"/>
<path d="M175.989 43.5308C173.265 43.5308 170.691 43.0262 168.27 42.0171C165.898 40.9575 163.829 39.5448 162.063 37.7788C160.298 36.0129 158.885 33.9442 157.825 31.5728C156.816 29.1509 156.312 26.5776 156.312 23.853C156.312 21.1284 156.816 18.5804 157.825 16.209C158.885 13.7871 160.298 11.6932 162.063 9.92725C163.829 8.11084 165.898 6.69808 168.27 5.68896C170.691 4.62939 173.265 4.09961 175.989 4.09961C178.714 4.09961 181.262 4.62939 183.633 5.68896C186.055 6.69808 188.149 8.11084 189.915 9.92725C191.731 11.6932 193.144 13.7871 194.153 16.209C195.213 18.5804 195.743 21.1284 195.743 23.853C195.743 26.5776 195.213 29.1509 194.153 31.5728C193.144 33.9442 191.731 36.0129 189.915 37.7788C188.149 39.5448 186.055 40.9575 183.633 42.0171C181.262 43.0262 178.714 43.5308 175.989 43.5308ZM160.02 118.533V72.4419L140.191 55.4888L195.364 53.2183V118.533L215.875 137H139.51L160.02 118.533ZM223.973 96.1309C223.973 89.5716 225.057 83.5169 227.227 77.9668C229.447 72.3662 232.575 67.5225 236.612 63.4355C240.699 59.3486 245.593 56.1447 251.294 53.8237C256.996 51.4523 263.379 50.2666 270.442 50.2666C274.075 50.2666 277.607 50.5946 281.038 51.2505C284.469 51.856 287.698 52.8398 290.726 54.2021C293.803 55.514 296.604 57.2295 299.126 59.3486C301.7 61.4678 303.945 64.041 305.862 67.0684V36.3408L286.033 19.3877L341.963 17.1172V118.533L362.474 137H305.862V123.15C302.28 128.851 297.613 133.09 291.861 135.865C286.159 138.589 279.777 139.952 272.713 139.952C264.135 139.952 256.769 138.766 250.613 136.395C244.458 134.023 239.412 130.844 235.477 126.858C231.541 122.822 228.64 118.155 226.773 112.857C224.906 107.559 223.973 101.984 223.973 96.1309ZM263.782 95.147C263.782 99.2843 264.287 102.917 265.296 106.045C266.355 109.174 267.819 111.797 269.686 113.917C271.552 115.985 273.772 117.549 276.346 118.609C278.919 119.668 281.744 120.198 284.822 120.198C287.396 120.198 289.918 119.744 292.391 118.836C294.913 117.928 297.159 116.49 299.126 114.522C301.145 112.504 302.759 109.905 303.97 106.727C305.232 103.548 305.862 99.688 305.862 95.147C305.862 90.4546 305.257 86.4938 304.046 83.2646C302.885 79.985 301.321 77.3361 299.354 75.3179C297.436 73.2492 295.216 71.7607 292.693 70.8525C290.171 69.8939 287.547 69.4146 284.822 69.4146C281.744 69.4146 278.919 69.9696 276.346 71.0796C273.772 72.1896 271.552 73.8547 269.686 76.0747C267.819 78.2443 266.355 80.9437 265.296 84.1729C264.287 87.3516 263.782 91.0096 263.782 95.147ZM371.556 96.3579C371.556 90.2023 372.439 84.7783 374.205 80.0859C376.021 75.3936 378.443 71.3571 381.47 67.9766C384.548 64.5456 388.105 61.6948 392.142 59.4243C396.229 57.1538 400.568 55.3374 405.159 53.9751C409.751 52.6128 414.468 51.6541 419.312 51.0991C424.206 50.5441 428.949 50.2666 433.541 50.2666C440.857 50.2666 447.668 51.0739 453.975 52.6885C460.333 54.3031 465.832 56.9015 470.474 60.4839C475.116 64.0662 478.749 68.7839 481.373 74.6367C484.047 80.4391 485.384 87.5282 485.384 95.9038H411.441C411.643 101.151 412.526 105.49 414.09 108.921C415.704 112.302 417.773 115.001 420.296 117.02C422.819 118.987 425.695 120.375 428.924 121.182C432.153 121.989 435.483 122.393 438.914 122.393C441.992 122.393 445.322 122.216 448.904 121.863C452.487 121.51 456.069 120.854 459.651 119.896C463.234 118.886 466.665 117.524 469.944 115.809C473.224 114.093 476.075 111.848 478.497 109.073L486.216 115.127C484.955 118.205 483.189 120.955 480.918 123.377C478.648 125.799 476.049 127.943 473.123 129.81C470.197 131.626 467.018 133.191 463.587 134.502C460.206 135.764 456.725 136.798 453.143 137.605C449.56 138.413 445.978 138.993 442.396 139.346C438.813 139.75 435.382 139.952 432.103 139.952C422.869 139.952 414.519 138.993 407.051 137.076C399.634 135.158 393.277 132.358 387.979 128.675C382.732 124.941 378.67 120.375 375.794 114.976C372.968 109.527 371.556 103.321 371.556 96.3579ZM448.753 84.0972C448.753 80.3634 448.4 77.2352 447.693 74.7124C447.037 72.1392 446.028 70.0705 444.666 68.5063C443.304 66.9422 441.588 65.8322 439.52 65.1763C437.501 64.4699 435.13 64.1167 432.405 64.1167C426.653 64.1167 422.087 65.8574 418.707 69.3389C415.326 72.8203 413.106 77.7397 412.046 84.0972H448.753ZM500.521 117.474C500.521 113.437 501.353 109.956 503.018 107.029C504.683 104.052 506.928 101.53 509.754 99.4609C512.579 97.3418 515.884 95.6263 519.668 94.3145C523.453 93.0026 527.464 91.9935 531.702 91.2871C535.94 90.5303 540.28 90.0257 544.72 89.7734C549.21 89.4707 553.575 89.3193 557.813 89.3193C560.184 89.3193 562.682 89.3698 565.306 89.4707C567.98 89.5212 570.654 89.5968 573.328 89.6978C573.227 86.0649 572.899 82.8358 572.344 80.0103C571.84 77.1343 570.957 74.7376 569.695 72.8203C568.484 70.8525 566.769 69.3641 564.549 68.355C562.379 67.2954 559.579 66.7656 556.148 66.7656C553.928 66.7656 551.733 67.0431 549.563 67.5981C547.394 68.1532 545.426 69.0361 543.66 70.2471C541.894 71.458 540.381 73.0221 539.119 74.9395C537.908 76.8063 537.126 79.1021 536.773 81.8267L506.424 77.6641C506.424 74.2331 507.105 71.1805 508.467 68.5063C509.88 65.7817 511.797 63.4103 514.219 61.3921C516.641 59.3234 519.492 57.5827 522.771 56.1699C526.102 54.7572 529.659 53.6219 533.443 52.7642C537.278 51.9064 541.264 51.2757 545.401 50.8721C549.589 50.4684 553.751 50.2666 557.889 50.2666C562.884 50.2666 567.652 50.4937 572.193 50.9478C576.784 51.3514 581.048 52.1082 584.983 53.2183C588.919 54.3283 592.476 55.8167 595.655 57.6836C598.884 59.5505 601.634 61.9219 603.904 64.7979C606.175 67.6738 607.916 71.1048 609.126 75.0908C610.388 79.0768 611.019 83.7188 611.019 89.0166V115.657C611.019 119.694 612.002 122.519 613.97 124.134C615.988 125.748 618.713 126.556 622.144 126.556V135.259C621.69 135.713 620.908 136.218 619.798 136.773C618.738 137.278 617.326 137.757 615.56 138.211C613.844 138.715 611.801 139.119 609.429 139.422C607.058 139.775 604.333 139.952 601.255 139.952C597.522 139.952 594.166 139.75 591.189 139.346C588.213 138.993 585.614 138.337 583.394 137.378C581.224 136.47 579.408 135.209 577.945 133.594C576.482 131.98 575.372 129.936 574.615 127.464C572.092 129.684 569.241 131.576 566.062 133.14C562.884 134.704 559.503 135.991 555.921 137C552.389 138.009 548.731 138.741 544.947 139.195C541.213 139.699 537.53 139.952 533.897 139.952C531.475 139.952 528.978 139.826 526.404 139.573C523.831 139.321 521.308 138.867 518.836 138.211C516.364 137.605 514.017 136.773 511.797 135.713C509.577 134.603 507.635 133.216 505.97 131.551C504.305 129.886 502.968 127.893 501.958 125.572C501 123.251 500.521 120.551 500.521 117.474ZM539.649 114.144C539.649 115.506 540.002 116.742 540.708 117.852C541.415 118.962 542.374 119.896 543.584 120.652C544.795 121.409 546.208 121.989 547.823 122.393C549.437 122.797 551.153 122.999 552.969 122.999C554.836 122.999 556.905 122.797 559.175 122.393C561.446 121.939 563.59 121.207 565.608 120.198C567.677 119.189 569.443 117.877 570.906 116.263C572.369 114.598 573.202 112.579 573.404 110.208V102.488C572.697 102.438 572.016 102.413 571.36 102.413C570.755 102.413 570.175 102.413 569.62 102.413C564.221 102.413 559.629 102.69 555.845 103.245C552.061 103.75 548.958 104.507 546.536 105.516C544.165 106.525 542.424 107.761 541.314 109.224C540.204 110.687 539.649 112.327 539.649 114.144ZM650.45 118.533V68.6577H630.621V53.2183H650.45V43.3037C650.45 36.8454 651.787 31.1943 654.461 26.3506C657.186 21.4564 660.844 17.3947 665.435 14.1655C670.027 10.9364 675.299 8.51449 681.253 6.8999C687.257 5.28532 693.564 4.47803 700.174 4.47803C702.646 4.47803 705.371 4.57894 708.348 4.78076C711.325 4.98258 714.301 5.38623 717.278 5.9917C720.306 6.54671 723.207 7.354 725.982 8.41357C728.807 9.47314 731.305 10.8607 733.475 12.5762C735.644 14.2412 737.385 16.2847 738.697 18.7065C740.009 21.1284 740.665 24.0044 740.665 27.3345C740.665 27.7381 740.639 28.167 740.589 28.6211C740.589 29.0752 740.564 29.5041 740.513 29.9077L712.737 37.0977C712.838 36.3913 712.914 35.7101 712.964 35.0542C713.015 34.3983 713.04 33.7424 713.04 33.0864C713.04 31.1187 712.737 29.3275 712.132 27.7129C711.577 26.0479 710.744 24.6099 709.634 23.3989C708.575 22.188 707.238 21.2546 705.623 20.5986C704.059 19.8923 702.293 19.5391 700.325 19.5391C697.197 19.5391 694.725 20.3211 692.908 21.8853C691.092 23.3989 689.704 25.4928 688.746 28.167C687.787 30.8411 687.181 33.9694 686.929 37.5518C686.677 41.1341 686.551 44.994 686.551 49.1313V53.2183H714.629V68.6577H686.551V118.533L714.629 137H629.939L650.45 118.533ZM747.476 118.533V36.3408L727.647 19.3877L782.82 17.1172V118.533L803.331 137H726.966L747.476 118.533ZM840.567 131.929C839.961 134.149 839.659 136.319 839.659 138.438C839.659 140.86 839.987 143.156 840.643 145.325C841.299 147.545 842.358 149.488 843.821 151.153C845.285 152.818 847.151 154.13 849.422 155.088C851.743 156.097 854.568 156.602 857.898 156.602C860.674 156.602 863.121 156.047 865.24 154.937C867.359 153.877 869.201 152.439 870.765 150.623C872.379 148.857 873.716 146.788 874.776 144.417C875.886 142.046 876.769 139.573 877.425 137H853.433L824.219 69.6416L804.92 53.2183H872.203L863.348 65.7817L881.512 120.879L896.573 66.3115L887.415 53.2183H942.588L924.803 67.8252L899.524 137C896.85 144.367 893.873 150.371 890.594 155.013C887.314 159.705 883.681 163.363 879.695 165.987C875.76 168.661 871.446 170.477 866.753 171.436C862.111 172.445 857.041 172.95 851.541 172.95C844.982 172.95 839.129 172.218 833.982 170.755C828.886 169.342 824.572 167.299 821.041 164.625C817.509 162.001 814.809 158.797 812.942 155.013C811.126 151.279 810.218 147.066 810.218 142.374C810.218 141.213 810.293 139.952 810.445 138.589C810.647 137.227 810.848 136.016 811.05 134.957L840.567 131.929Z" fill="black"/>
</svg>
